<?xml version="1.0" encoding="iso-8859-1"?>
<!-- Generator: Adobe Illustrator 19.0.0, SVG Export Plug-In . SVG Version: 6.00 Build 0)  -->
<svg version="1.1" id="Capa_1" xmlns="http://www.w3.org/2000/svg" xmlns:xlink="http://www.w3.org/1999/xlink" x="0px" y="0px"
	 viewBox="0 0 512 512" style="enable-background:new 0 0 512 512;" xml:space="preserve">
<rect x="208" y="400.9" style="fill:#DDF7F5;" width="96" height="101.1"/>
<rect x="10" y="10" style="fill:#BDEFEC;" width="492" height="390.9"/>
<polyline style="fill:#FFFFFF;" points="292.429,355.973 462,355.973 462,54.932 50,54.932 50,355.973 219.603,355.973 "/>
<path d="M502,0H10C4.477,0,0,4.477,0,10v390.904c0,5.523,4.477,10,10,10h188V492h-73.374c-5.523,0-10,4.477-10,10s4.477,10,10,10
	h263c5.523,0,10-4.477,10-10s-4.477-10-10-10H314v-81.096h188c5.523,0,10-4.477,10-10V10C512,4.477,507.523,0,502,0z M294,492h-76
	v-81.096h76V492z M492,390.904H20V20h472V390.904z"/>
<path d="M50,365.973h169.603c5.523,0,10-4.477,10-10s-4.477-10-10-10H60V64.932h392v281.041H292.429c-5.523,0-10,4.477-10,10
	s4.477,10,10,10H462c5.523,0,10-4.477,10-10V54.932c0-5.523-4.477-10-10-10H50c-5.523,0-10,4.477-10,10v301.041
	C40,361.496,44.477,365.973,50,365.973z"/>
<path d="M257.538,345.973h-0.384c-5.523,0-10,4.477-10,10s4.477,10,10,10h0.384c5.523,0,10-4.477,10-10
	S263.061,345.973,257.538,345.973z"/>
<path d="M132.862,131h21.853c0.68,0,0.985,0.4,0.985,0.503c0,5.523,4.477,10,10,10s10-4.477,10-10
	c0-11.305-9.414-20.503-20.985-20.503h-21.853C120.808,111,111,120.573,111,132.341v44.318c0,11.768,9.808,21.341,21.862,21.341
	h21.853c11.571,0,20.985-9.198,20.985-20.503v-6.157c0-11.305-9.414-20.502-20.985-20.502h-7.198c-5.523,0-10,4.477-10,10
	s4.477,10,10,10h7.198c0.668,0,0.985,0.403,0.985,0.502v6.157c0,0.103-0.306,0.503-0.985,0.503h-21.853
	c-1.098,0-1.862-0.707-1.862-1.341v-44.318C131,131.707,131.765,131,132.862,131z"/>
<path d="M204.641,191.165l12.864-38.563l12.864,38.563c1.397,4.189,5.299,6.838,9.485,6.838c1.049,0,2.116-0.167,3.166-0.517
	c5.239-1.748,8.069-7.412,6.322-12.651l-22.35-67c-1.362-4.082-5.183-6.835-9.486-6.835s-8.125,2.753-9.486,6.835l-22.35,67
	c-1.748,5.239,1.083,10.903,6.322,12.651C197.231,199.234,202.894,196.404,204.641,191.165z"/>
<path d="M249.667,228.488c-5.254-1.704-10.894,1.174-12.598,6.427l-12.219,37.673l-12.219-37.673
	c-1.704-5.253-7.342-8.131-12.598-6.427c-5.253,1.704-8.131,7.344-6.427,12.598l21.731,67c1.337,4.123,5.178,6.915,9.512,6.915
	s8.175-2.792,9.512-6.915l21.731-67C257.798,235.832,254.92,230.192,249.667,228.488z"/>
<path d="M281.496,188v-37.839l6.74,8.671c1.895,2.438,4.809,3.863,7.896,3.863s6.001-1.426,7.896-3.863l6.74-8.671V188
	c0,5.523,4.477,10,10,10s10-4.477,10-10v-67c0-3.867-2.304-7.458-5.813-9.082c-4.211-1.949-9.333-0.649-12.146,3.027L296.131,136.4
	l-16.74-21.537c-2.622-3.374-7.096-4.708-11.139-3.323c-4.042,1.386-6.756,5.187-6.756,9.459v67c0,5.523,4.477,10,10,10
	S281.496,193.523,281.496,188z"/>
<path d="M391,131c5.523,0,10-4.477,10-10s-4.477-10-10-10h-35.422c-5.523,0-10,4.477-10,10v67c0,5.523,4.477,10,10,10H391
	c5.523,0,10-4.477,10-10s-4.477-10-10-10h-25.422v-13.5h14.353c5.523,0,10-4.477,10-10s-4.477-10-10-10h-14.353V131H391z"/>
<path d="M326.425,305c0-5.523-4.477-10-10-10h-24.442v-13.5h13.679c5.523,0,10-4.477,10-10s-4.477-10-10-10h-13.679V248h24.442
	c5.523,0,10-4.477,10-10s-4.477-10-10-10h-34.442c-5.523,0-10,4.477-10,10v67c0,5.523,4.477,10,10,10h34.442
	C321.948,315,326.425,310.523,326.425,305z"/>
<path d="M111,279.814C111,299.216,126.784,315,146.186,315c19.401,0,35.185-15.784,35.185-35.186v-16.629
	c0-19.401-15.784-35.186-35.186-35.186C126.784,228,111,243.784,111,263.186V279.814z M131,263.186
	c0-8.374,6.812-15.186,15.186-15.186c8.373,0,15.185,6.812,15.185,15.186v16.629c0,8.374-6.812,15.186-15.185,15.186l0,0
	c-8.373,0-15.185-6.812-15.185-15.186v-16.629H131z"/>
<path d="M340.809,238v33.5V305c0,5.523,4.477,10,10,10s10-4.477,10-10v-12.448l23.873,19.458c4.281,3.489,10.58,2.848,14.069-1.434
	c3.489-4.281,2.848-10.58-1.434-14.069l-18.828-15.347C391.231,279.122,401,268.057,401,254.75C401,240,389,228,374.25,228h-23.441
	C345.286,228,340.809,232.477,340.809,238z M360.809,248h13.441c3.722,0,6.75,3.028,6.75,6.75c0,3.722-3.028,6.75-6.75,6.75h-13.441
	V248z"/>
<g>
</g>
<g>
</g>
<g>
</g>
<g>
</g>
<g>
</g>
<g>
</g>
<g>
</g>
<g>
</g>
<g>
</g>
<g>
</g>
<g>
</g>
<g>
</g>
<g>
</g>
<g>
</g>
<g>
</g>
</svg>
